HIERARCHY
ROOT root
{
	OFFSET	0	13.1	24.9
	CHANNELS 6  Xposition Yposition Zposition Xrotation Yrotation Zrotation
	JOINT spine_1
	{
		OFFSET	0	9.99999	0
		CHANNELS 3  Xrotation Yrotation Zrotation
		JOINT spine_2
		{
			OFFSET	0	112	-10
			CHANNELS 3  Xrotation Yrotation Zrotation
			JOINT spine_3
			{
				OFFSET	0	206.5	19.3
				CHANNELS 3  Xrotation Yrotation Zrotation
				JOINT spine_4
				{
					OFFSET	0	110.4	14.6
					CHANNELS 3  Xrotation Yrotation Zrotation
					JOINT neck_1
					{
						OFFSET	0	71.8	-50.3
						CHANNELS 3  Xrotation Yrotation Zrotation
						JOINT neck_2
						{
							OFFSET	0	86.2	-25.8
							CHANNELS 3  Xrotation Yrotation Zrotation
							JOINT head_ee
							{
								OFFSET	0	179.8	-8.7
								CHANNELS 3  Xrotation Yrotation Zrotation
								End Site
								{
									OFFSET	1	0	0
								}
							}
						}
					}
					JOINT left_clavicle
					{
						OFFSET	-43.2	22.4	-70.8
						CHANNELS 3  Xrotation Yrotation Zrotation
						JOINT left_shoulder
						{
							OFFSET	-93.9	-5.79999	48.7
							CHANNELS 3  Xrotation Yrotation Zrotation
							JOINT left_elbow
							{
								OFFSET	-291.4	-30.8	15.2
								CHANNELS 3  Xrotation Yrotation Zrotation
								JOINT left_lowarm_twist
								{
									OFFSET	-110.7	-3.89999	13.6
									CHANNELS 3  Xrotation Yrotation Zrotation
									JOINT left_hand
									{
										OFFSET	-110.7	-3.89999	13.6
										CHANNELS 3  Xrotation Yrotation Zrotation
										JOINT left_ee
										{
											OFFSET	-80.8	-5.10001	12.1
											CHANNELS 3  Xrotation Yrotation Zrotation
											End Site
											{
												OFFSET	1	0	0
											}
										}
									}
								}
							}
						}
					}
					JOINT right_clavicle
					{
						OFFSET	43.2	22.4	-70.8
						CHANNELS 3  Xrotation Yrotation Zrotation
						JOINT right_shoulder
						{
							OFFSET	93.9	-5.79999	48.7
							CHANNELS 3  Xrotation Yrotation Zrotation
							JOINT right_elbow
							{
								OFFSET	291.4	-30.8	15.2
								CHANNELS 3  Xrotation Yrotation Zrotation
								JOINT right_lowarm_twist
								{
									OFFSET	110.7	-3.89999	13.6
									CHANNELS 3  Xrotation Yrotation Zrotation
									JOINT right_hand
									{
										OFFSET	110.7	-3.89999	13.6
										CHANNELS 3  Xrotation Yrotation Zrotation
										JOINT right_ee
										{
											OFFSET	80.8	-5.10001	12.1
											CHANNELS 3  Xrotation Yrotation Zrotation
											End Site
											{
												OFFSET	1	0	0
											}
										}
									}
								}
							}
						}
					}
				}
			}
		}
	}
	JOINT left_hip
	{
		OFFSET	-82.8	-127.5	0.300001
		CHANNELS 3  Xrotation Yrotation Zrotation
		JOINT left_knee
		{
			OFFSET	-28.2	-396.7	2.2
			CHANNELS 3  Xrotation Yrotation Zrotation
			JOINT left_ankle
			{
				OFFSET	-11.7	-411.3	35.4
				CHANNELS 3  Xrotation Yrotation Zrotation
				JOINT left_toes
				{
					OFFSET	0	-60	-88.6
					CHANNELS 3  Xrotation Yrotation Zrotation
					JOINT left_foot_ee
					{
						OFFSET	-22.5	-16.5	-42.2
						CHANNELS 3  Xrotation Yrotation Zrotation
						End Site
						{
							OFFSET	1	0	0
						}
					}
				}
			}
		}
	}
	JOINT right_hip
	{
		OFFSET	82.8	-127.5	0.300001
		CHANNELS 3  Xrotation Yrotation Zrotation
		JOINT right_knee
		{
			OFFSET	28.2	-396.7	2.2
			CHANNELS 3  Xrotation Yrotation Zrotation
			JOINT right_ankle
			{
				OFFSET	11.7	-411.3	35.4
				CHANNELS 3  Xrotation Yrotation Zrotation
				JOINT right_toes
				{
					OFFSET	0	-60	-88.6
					CHANNELS 3  Xrotation Yrotation Zrotation
					JOINT right_foot_ee
					{
						OFFSET	22.5	-16.5	-42.2
						CHANNELS 3  Xrotation Yrotation Zrotation
						End Site
						{
							OFFSET	1	0	0
						}
					}
				}
			}
		}
	}
}
MOTION
Frames: 16
Frame Time: 0.02
1041.4 574.639 -1682.42 148.877 83.5561 -140.219 -1.14311 -0.307258 -2.46915 -1.13973 -0.149567 -2.48368 -1.13053 0.424453 -2.45173 -1.13892 0.0320464 -2.48797 -23.5009 8.17802 5.07004 -23.7621 13.5218 8.64591 -0.0 0.0 -0.0 7.0319 21.0706 12.7126 -27.3823 2.45343 65.9555 0.688953 -18.8442 0.114329 -35.2749 -2.46324 3.70106 4.07632 16.3442 33.9027 -0.0 0.0 -0.0 11.965 0.511238 -23.8246 14.5737 31.996 -59.3664 2.45266 50.5357 -1.15782 -78.1359 7.5849 -5.30096 0.138703 7.83383 2.38933 0.0 0.0 0.0 35.5247 -6.26174 -15.4376 -6.33848 0.208598 0.949911 -9.78433 -19.5571 1.65548 -5.33843 0.0 0.0 -0.0 0.0 -0.0 -10.7935 5.35768 -16.0078 -35.0179 0.180601 -5.28838 42.3093 -10.9155 5.08165 38.4412 -0.0 -0.0 0.0 0.0 0.0 
1023.96 573.536 -1675.76 142.455 83.9946 -133.687 -1.0689 -0.333898 -2.49812 -1.06544 -0.174312 -2.51429 -1.05504 0.404098 -2.48773 -1.06368 0.00626573 -2.52031 -24.5582 7.832 4.85488 -24.8234 13.031 8.42955 -0.0 0.0 -0.0 7.44591 20.9734 13.3464 -27.5132 0.712054 64.874 0.788952 -21.3466 0.148696 -31.7988 -2.12415 3.41163 4.74761 16.3056 39.216 -0.0 0.0 -0.0 11.651 -0.489079 -23.077 14.4768 31.0099 -60.937 2.46848 50.7163 -1.17005 -77.626 7.51996 -5.30541 0.429641 10.2317 1.4474 0.0 0.0 0.0 35.8357 -6.26516 -16.0225 -10.5249 0.28824 1.58725 -7.50834 -19.3854 1.26359 -4.49485 0.0 0.0 -0.0 0.0 -0.0 -11.209 7.04478 -15.5929 -36.8283 0.277415 -5.54914 42.1863 -14.3497 5.11365 40.2768 -0.0 -0.0 0.0 0.0 0.0 
1004.77 580.924 -1666.41 130.963 85.2299 -122.246 -0.998398 -0.320519 -2.45103 -0.99507 -0.163952 -2.46645 -0.985435 0.4003 -2.43928 -0.993738 0.0101604 -2.47186 -23.2719 8.12165 3.89771 -23.5806 13.9187 7.5107 -0.0 0.0 -0.0 7.60786 20.1327 13.678 -25.9549 0.364024 64.1712 0.900324 -24.0363 0.191672 -27.2896 -1.71164 3.00671 5.14565 16.4024 42.6244 -0.0 0.0 -0.0 11.4858 -0.977467 -22.6892 13.4406 30.0259 -62.1577 2.38104 49.7008 -1.10286 -76.8058 7.41541 -5.31134 0.996405 12.0107 -1.61098 0.0 0.0 0.0 37.8021 -6.45398 -16.1968 -14.6627 0.321024 2.22114 -5.51796 -20.3112 0.933217 -2.87435 0.0 0.0 -0.0 0.0 -0.0 -10.6289 8.89447 -15.0312 -38.4238 0.369547 -5.77636 42.0107 -17.0672 5.14553 40.2886 -0.0 -0.0 0.0 0.0 0.0 
971.819 593.975 -1661.22 141.124 86.0324 -132.02 -0.91007 -0.323534 -2.36762 -0.906968 -0.172264 -2.3834 -0.897449 0.3697 -2.36086 -0.905227 -0.00768236 -2.3896 -22.1082 9.18304 5.10928 -22.4271 15.3228 8.95455 -0.0 0.0 -0.0 6.72651 22.2599 12.1575 -24.0883 -2.66583 62.858 1.17209 -30.1392 0.315598 -27.031 -1.68897 2.98253 5.30969 18.9089 44.6005 -0.0 0.0 -0.0 11.2366 -2.28833 -22.061 11.9919 29.0195 -63.4983 2.24574 48.0412 -1.00094 -72.7318 6.89499 -5.3184 1.96151 11.6862 -8.28346 0.0 0.0 0.0 37.2654 -5.99998 -16.9455 -19.8445 0.297457 3.01557 -1.75627 -17.7036 0.287567 1.2307 -0.0 -0.0 -0.0 0.0 -0.0 -11.6067 8.94031 -15.3064 -35.4171 0.201235 -5.34612 32.5652 -22.2587 4.3312 40.2465 -0.0 -0.0 0.0 0.0 0.0 
948.119 600.491 -1655.28 144.682 86.5371 -135.592 -0.860038 -0.340844 -2.28842 -0.857146 -0.194575 -2.30546 -0.847119 0.328343 -2.29025 -0.854437 -0.0373797 -2.31335 -21.4717 9.29012 6.29326 -21.7101 14.9039 9.97999 -0.0 0.0 -0.0 6.41631 22.0049 11.7233 -23.4366 -5.34438 62.7083 1.22977 -31.3482 0.345084 -22.5048 -1.31035 2.54329 5.59669 16.9009 46.8495 -0.0 0.0 -0.0 11.0342 -3.25076 -21.561 9.66957 28.406 -64.3883 2.32021 48.9682 -1.05671 -72.7915 6.90262 -5.31857 2.37791 13.7702 -10.1831 0.0 0.0 0.0 36.9493 -5.67193 -17.4095 -22.5079 0.257426 3.42225 0.914949 -19.6109 -0.151291 3.89441 -0.0 -0.0 -0.0 0.0 -0.0 -11.8039 9.97603 -15.2938 -35.3591 0.198213 -5.33775 31.6245 -24.3886 4.2772 40.1833 -0.0 -0.0 0.0 0.0 0.0 
933.269 602.124 -1653.74 149.584 87.622 -140.711 -0.681211 -0.308725 -2.19794 -0.678539 -0.168274 -2.21312 -0.670164 0.326448 -2.19538 -0.67689 -0.0242794 -2.21937 -20.8978 9.40543 5.96639 -21.1484 15.2192 9.64099 -0.0 0.0 -0.0 6.07967 21.5186 11.2617 -21.3521 -7.97578 62.7103 1.11682 -28.9523 0.288342 -21.7996 -1.25454 2.47224 5.65645 17.8159 47.6127 -0.0 0.0 -0.0 11.0008 -4.23626 -21.4034 8.76731 27.6516 -65.5726 2.30838 48.8232 -1.0478 -71.7354 6.76765 -5.31446 2.6628 11.0089 -13.3978 0.0 0.0 0.0 37.4959 -5.45124 -18.2398 -25.6071 0.187105 3.8926 4.02058 -20.1749 -0.66195 2.07823 -0.0 -0.0 -0.0 0.0 -0.0 -11.81 9.48761 -14.5473 -34.3775 0.148339 -5.19544 25.7225 -27.3447 3.64983 40.258 -0.0 -0.0 0.0 0.0 0.0 
918.047 610.629 -1648.11 156.504 88.9897 -147.307 -0.519358 -0.303018 -2.16689 -0.51676 -0.164553 -2.18177 -0.508786 0.317027 -2.16489 -0.515325 -0.0287702 -2.18778 -19.5408 10.921 4.75915 -19.9607 18.6032 8.98069 -0.0 0.0 -0.0 6.15693 21.9515 11.3474 -19.5415 -7.90147 62.0939 1.11062 -28.8174 0.285348 -19.2675 -1.0615 2.21166 5.72106 16.8451 48.036 -0.0 0.0 -0.0 10.9813 -4.56762 -21.3324 7.94427 26.7551 -66.036 2.20124 47.4707 -0.967992 -69.4254 6.47272 -5.29673 3.18741 10.9437 -17.0889 0.0 0.0 0.0 37.7231 -5.32108 -18.6319 -27.7571 0.123416 4.2164 4.84238 -18.8344 -0.785359 1.8867 -0.0 -0.0 -0.0 0.0 -0.0 -11.0687 8.65935 -13.7266 -34.8977 0.174465 -5.27096 23.3385 -24.6195 3.29286 40.3662 -0.0 -0.0 0.0 0.0 0.0 
900.209 620.512 -1641.4 -157.734 89.9519 167.243 -0.214855 -0.353306 -2.29312 -0.211953 -0.206712 -2.31094 -0.201903 0.291824 -2.30175 -0.209289 -0.0752562 -2.31895 -19.0296 11.3088 6.41047 -19.3622 18.4394 10.5552 -0.0 0.0 -0.0 6.09021 21.4798 11.2797 -17.5602 -9.11138 62.8007 1.06989 -27.9226 0.265994 -19.3426 -1.06706 2.2195 5.40631 19.6912 45.6134 -0.0 0.0 -0.0 10.9621 -5.54163 -21.1972 5.77853 25.5168 -66.235 2.05083 45.4471 -0.858948 -68.8569 6.40023 -5.29053 3.90391 11.1953 -22.0841 0.0 0.0 0.0 36.4348 -4.66398 -18.6931 -27.6937 0.125471 4.20687 6.40295 -16.4002 -1.01193 0.31203 -0.0 -0.0 -0.0 0.0 -0.0 -10.224 8.71949 -13.5959 -36.2921 0.247878 -5.47222 18.4602 -28.4653 2.72184 40.2909 -0.0 -0.0 0.0 0.0 0.0 
874.944 622.886 -1638.04 39.129 89.3168 -29.4996 -0.0972783 -0.36289 -2.41915 -0.0940465 -0.208265 -2.43733 -0.0833979 0.31231 -2.4262 -0.0916046 -0.074663 -2.44506 -19.1879 11.8004 6.29925 -19.5867 19.4668 10.699 -0.0 0.0 -0.0 5.76255 21.6597 10.7877 -16.2502 -10.749 62.6575 1.14777 -29.6204 0.303483 -18.4202 -0.99951 2.1226 5.37629 20.0788 45.4048 -0.0 0.0 -0.0 10.9257 -6.25979 -21.0497 4.25555 24.7119 -66.552 1.91158 43.4343 -0.761431 -66.1994 6.06225 -5.25199 4.4833 12.2161 -25.8244 0.0 0.0 0.0 35.5483 -4.81159 -19.1708 -31.3656 -0.0106587 4.75386 8.76515 -14.1566 -1.3504 1.01472 -0.0 -0.0 -0.0 0.0 -0.0 -9.82247 7.24442 -13.1308 -39.2607 0.420407 -5.89453 11.4943 -28.3302 1.73535 40.3895 -0.0 -0.0 0.0 0.0 0.0 
857.643 626.474 -1630.67 55.3844 89.2139 -45.7225 0.00035658 -0.552617 -2.49202 0.00372548 -0.392975 -2.5221 0.0230382 0.144828 -2.54841 0.0140697 -0.25933 -2.53932 -19.0905 11.9332 6.74906 -19.4672 19.4769 11.1452 -0.0 0.0 -0.0 5.83599 21.2308 10.9189 -13.5709 -10.7073 62.5902 1.19866 -30.6998 0.329048 -17.9029 -0.962315 2.06779 5.06523 21.2971 42.8595 -0.0 0.0 -0.0 10.8348 -7.46813 -20.7382 3.00729 23.5586 -66.0835 1.81812 42.0036 -0.698025 -65.6924 5.99797 -5.24284 4.82705 10.3094 -29.4123 0.0 0.0 0.0 34.9852 -4.60562 -19.0435 -33.9569 -0.127719 5.13421 10.292 -13.6591 -1.57084 0.867347 -0.0 -0.0 -0.0 0.0 -0.0 -8.07674 6.32809 -12.7029 -44.6299 0.787275 -6.6339 6.23383 -28.3805 0.956132 40.2232 -0.0 -0.0 0.0 0.0 0.0 
846.932 636.651 -1629.18 34.1641 88.7202 -24.1524 0.120794 -0.571803 -2.60871 0.124488 -0.404705 -2.63978 0.145204 0.152357 -2.66625 0.135386 -0.270487 -2.65687 -20.019 10.6801 7.68864 -20.2444 16.7112 11.628 -0.0 0.0 -0.0 5.70307 21.1342 10.7274 -11.9507 -14.0761 62.9785 1.31029 -32.9851 0.387955 -17.7937 -0.954528 2.05618 4.28595 21.6787 36.6421 -0.0 0.0 -0.0 10.8125 -8.33334 -20.5951 0.908474 22.4265 -65.8522 1.76665 41.187 -0.663856 -66.3692 6.08379 -5.25492 5.75002 8.81189 -37.6494 0.0 0.0 0.0 33.4185 -4.39538 -19.2282 -33.4654 -0.104189 5.06246 11.9864 -13.1156 -1.81026 0.71776 -0.0 -0.0 -0.0 0.0 -0.0 -4.8685 4.41359 -12.0908 -50.1269 1.23324 -7.3526 -4.83253 -21.8164 -0.734005 40.2185 -0.0 -0.0 0.0 0.0 0.0 
824.602 638.326 -1622.94 66.0902 88.7758 -55.9274 0.0915224 -0.654851 -2.64539 0.0952847 -0.485254 -2.68166 0.120243 0.0833673 -2.72391 0.110058 -0.347709 -2.70293 -19.4537 11.2416 5.40211 -19.8647 18.8831 9.69103 -0.0 0.0 -0.0 5.61258 19.2444 10.6778 -10.6858 -14.6244 62.8935 1.384 -34.4324 0.428869 -16.9502 -0.895118 1.96599 4.31271 22.3678 36.9636 -0.0 0.0 -0.0 10.8249 -9.01861 -20.5365 -0.731645 20.4799 -64.7637 1.68269 39.8097 -0.609323 -64.0092 5.78515 -5.2084 5.85357 8.63189 -38.6336 0.0 0.0 0.0 32.3211 -3.28328 -19.9045 -35.2474 -0.192417 5.3216 12.0511 -14.3065 -1.83445 1.34257 -0.0 -0.0 -0.0 0.0 -0.0 -3.08276 4.04837 -11.5688 -54.5544 1.64153 -7.89881 -9.63003 -22.6731 -1.47884 39.0409 -0.0 -0.0 0.0 0.0 0.0 
814.03 646.137 -1617.08 66.1015 88.3345 -55.9325 0.0436949 -0.770083 -2.71923 0.0476111 -0.595559 -2.76267 0.0788691 -0.00574881 -2.82608 0.0680094 -0.451828 -2.78977 -20.1082 10.6607 5.35448 -20.4906 17.8587 9.51365 -0.0 0.0 -0.0 5.51674 18.9346 10.5431 -8.53298 -14.961 63.2108 1.45023 -35.6913 0.466914 -16.5774 -0.869292 1.92586 4.09522 22.6962 35.3808 -0.0 0.0 -0.0 10.6623 -9.66177 -20.1464 -2.37351 19.3531 -63.8069 1.63989 39.0857 -0.582132 -64.156 5.80368 -5.21165 6.16488 7.91101 -41.784 0.0 0.0 0.0 30.8215 -1.93813 -19.863 -34.4759 -0.153226 5.20973 12.1426 -14.6816 -1.8526 1.04478 -0.0 -0.0 -0.0 0.0 -0.0 -0.140444 3.23359 -11.1135 -57.6624 1.95293 -8.26289 -12.9668 -21.357 -1.98815 38.3965 -0.0 -0.0 0.0 0.0 0.0 
801.011 651.323 -1611.12 78.2903 88.5919 -67.5543 -0.0316451 -0.845693 -2.79209 -0.027555 -0.666385 -2.84019 0.00831852 -0.0553244 -2.91674 -0.00318285 -0.515082 -2.87147 -18.4443 10.5731 3.20627 -18.861 18.643 7.20509 -0.0 0.0 -0.0 5.774 17.5544 10.9977 -8.01883 -17.9782 63.2338 1.47716 -36.1922 0.482721 -17.3254 -0.921384 2.00622 3.10397 22.1796 28.2566 -0.0 0.0 -0.0 10.5261 -10.5632 -19.7767 -3.78848 18.0461 -62.8187 1.59562 38.3207 -0.554446 -62.8239 5.63589 -5.18038 6.4918 8.93262 -44.1377 0.0 0.0 0.0 26.9467 0.341989 -19.7777 -25.7141 0.184225 3.90876 13.6399 -19.2357 -2.14411 1.65938 -0.0 -0.0 -0.0 0.0 -0.0 3.5216 2.84768 -12.0554 -61.8678 2.40502 -8.72795 -13.0664 -19.6222 -1.99103 38.0682 -0.0 -0.0 0.0 0.0 0.0 
788.944 655.037 -1604.13 19.6394 87.6686 -9.00426 0.0693141 -0.521406 -2.7916 0.0735841 -0.342785 -2.81909 0.0927674 0.252861 -2.82857 0.0816572 -0.196847 -2.83301 -17.0838 11.101 2.9434 -17.4984 19.6892 6.9246 -0.0 0.0 -0.0 5.57622 16.7991 10.7112 -7.99794 -22.0864 62.4467 1.61294 -38.622 0.565224 -17.9185 -0.963428 2.06945 2.22566 21.4584 22.2829 -0.0 0.0 -0.0 10.4696 -12.1777 -19.4612 -4.87221 17.3906 -61.7148 1.52499 37.0662 -0.511261 -63.6274 5.73701 -5.19971 6.47412 6.4338 -45.5421 0.0 0.0 0.0 25.1191 1.52549 -19.4778 -22.8799 0.25033 3.4789 15.252 -17.4518 -2.34409 2.18868 -0.0 -0.0 -0.0 0.0 -0.0 5.21422 2.78342 -11.3399 -62.1605 2.43774 -8.75907 -12.7339 -12.7143 -1.90931 39.0765 -0.0 -0.0 0.0 0.0 0.0 
778.69 661.408 -1599.31 15.7084 87.1285 -4.95611 -0.0208332 -0.405871 -2.99235 -0.0158776 -0.214726 -3.01208 -0.00202192 0.42353 -2.9899 -0.014492 -0.0537615 -3.01924 -17.8121 10.736 1.9996 -18.2689 19.5583 6.04694 -0.0 0.0 -0.0 5.66291 16.1732 10.8706 -6.8767 -22.138 62.1315 1.77456 -41.3138 0.669073 -16.9428 -0.894605 1.96519 2.20212 20.8839 21.9766 -0.0 0.0 -0.0 10.4041 -13.6262 -19.1415 -5.85944 16.5252 -60.738 1.46827 36.0275 -0.477483 -64.2735 5.8185 -5.21422 6.57747 6.47075 -46.5165 0.0 0.0 0.0 22.9847 3.13854 -19.2547 -18.6506 0.309256 2.83276 14.4398 -19.2955 -2.26271 1.48943 -0.0 -0.0 -0.0 0.0 -0.0 7.86643 2.23727 -11.9769 -65.0913 2.7741 -9.06149 -11.3179 -9.93226 -1.69054 39.9782 -0.0 -0.0 0.0 0.0 0.0 
